<svg width="50" height="53" viewBox="0 0 50 53" fill="none" xmlns="http://www.w3.org/2000/svg">
<g filter="url(#filter0_d_87_138)">
<path fill-rule="evenodd" clip-rule="evenodd" d="M25 44C36.0457 44 45 35.0457 45 24C45 12.9543 36.0457 4 25 4C13.9543 4 5 12.9543 5 24C5 35.0457 13.9543 44 25 44Z" stroke="#EAEBEB" stroke-width="2" stroke-linecap="round" stroke-linejoin="round"/>
<path d="M5 24H45" stroke="#EAEBEB" stroke-width="2" stroke-linecap="round" stroke-linejoin="round"/>
<path fill-rule="evenodd" clip-rule="evenodd" d="M25 44C29.4183 44 33 35.0457 33 24C33 12.9543 29.4183 4 25 4C20.5817 4 17 12.9543 17 24C17 35.0457 20.5817 44 25 44Z" stroke="#EAEBEB" stroke-width="2" stroke-linecap="round" stroke-linejoin="round"/>
<path d="M10.8574 10.1426C14.4767 13.7619 19.4767 16.0005 24.9995 16.0005C30.5224 16.0005 35.5224 13.7619 39.1417 10.1426" stroke="#EAEBEB" stroke-width="2" stroke-linecap="round" stroke-linejoin="round"/>
<path d="M39.1417 37.8579C35.5224 34.2386 30.5224 32 24.9995 32C19.4767 32 14.4767 34.2386 10.8574 37.8579" stroke="#EAEBEB" stroke-width="2" stroke-linecap="round" stroke-linejoin="round"/>
</g>
<defs>
<filter id="filter0_d_87_138" x="-3" y="0" width="56" height="56" filterUnits="userSpaceOnUse" color-interpolation-filters="sRGB">
<feFlood flood-opacity="0" result="BackgroundImageFix"/>
<feColorMatrix in="SourceAlpha" type="matrix" values="0 0 0 0 0 0 0 0 0 0 0 0 0 0 0 0 0 0 127 0" result="hardAlpha"/>
<feOffset dy="4"/>
<feGaussianBlur stdDeviation="2"/>
<feComposite in2="hardAlpha" operator="out"/>
<feColorMatrix type="matrix" values="0 0 0 0 0 0 0 0 0 0 0 0 0 0 0 0 0 0 0.25 0"/>
<feBlend mode="normal" in2="BackgroundImageFix" result="effect1_dropShadow_87_138"/>
<feBlend mode="normal" in="SourceGraphic" in2="effect1_dropShadow_87_138" result="shape"/>
</filter>
</defs>
</svg>
