<svg width="85" height="56" viewBox="0 0 85 56" fill="none" xmlns="http://www.w3.org/2000/svg">
<g clip-path="url(#clip0_129_118)">
<path d="M37.1081 6.36145e-05H31.7945C26.301 -0.0499837 20.8952 1.3635 16.1447 4.0921C10.6006 7.2376 6.97205 11.5804 5.25907 17.1204C3.41749 22.9603 4.22546 28.0636 7.68296 32.4304C8.8875 33.9426 10.3479 35.237 11.9994 36.2561C13.3897 37.1127 14.4742 37.5409 15.2531 37.5409L15.9009 35.5039C10.1651 32.2936 8.12698 28.0001 9.78658 22.6232C11.0713 18.5312 13.9793 15.3317 18.4777 12.9924C21.9861 11.1497 25.3635 10.2391 28.6172 10.2391C30.5316 10.2391 31.8491 10.1312 32.5552 9.90084C33.0997 9.71404 33.5884 9.3956 33.9767 8.97447C34.3651 8.55334 34.6408 8.04288 34.7789 7.48952L37.1081 6.36145e-05Z" fill="#D51111"/>
<path d="M83.9736 15.3388H80.7782C77.4719 15.308 74.2183 16.1584 71.3592 17.8005C68.0182 19.6936 65.8454 22.3064 64.8081 25.6427C63.6969 29.1601 64.1822 32.2324 66.2639 34.8596C66.9898 35.7695 67.8688 36.5487 68.8625 37.163C69.6996 37.6776 70.3547 37.9368 70.8206 37.9368L71.2136 36.7095C67.7634 34.7733 66.5357 32.188 67.5305 28.9537C68.302 26.492 70.0526 24.5666 72.7604 23.1594C74.6255 22.1174 76.7222 21.5474 78.8638 21.5003C79.6591 21.5374 80.4559 21.4697 81.2331 21.2987C81.5596 21.1874 81.8529 20.9976 82.0867 20.7463C82.3205 20.495 82.4874 20.1901 82.5724 19.8591L83.9736 15.3532V15.3388Z" fill="#1D1D1B"/>
<path d="M68.313 15.454H65.1175C61.9333 15.4215 58.761 15.8433 55.6986 16.7064C52.3575 17.6709 50.1847 19.0026 49.1475 20.6977C48.0362 22.49 48.5215 24.0495 50.6033 25.3763C51.4143 25.8765 52.2879 26.2697 53.2019 26.546C53.8322 26.7693 54.4915 26.9026 55.1599 26.9419L55.553 26.3157C52.0955 25.3343 50.8665 24.0147 51.8662 22.3568C52.6378 21.1008 54.3883 20.1218 57.0961 19.4056C59.084 18.8592 61.1363 18.576 63.1995 18.5635C63.9908 18.5817 64.7823 18.5469 65.5688 18.4591C65.8326 18.4417 66.0894 18.3676 66.3214 18.2421C66.5533 18.1165 66.7548 17.9425 66.9118 17.7321L68.313 15.4396V15.454Z" fill="#1D1D1B"/>
<path d="M41.3917 9.56247H35.5686L29.7891 28.1979H39.2954L44.6418 11.0272H58.4718L61.922 0H47.244L45.1659 6.61131C44.7873 7.77498 44.3894 8.54396 43.9721 8.91825C43.4699 9.34653 42.6 9.56247 41.3917 9.56247Z" fill="#1D4CB9"/>
<path d="M25.8693 15.7418C23.5401 15.7418 22.0224 16.8503 21.3164 19.0493L18.4812 28.1979H28.0021L31.9036 15.7418H25.8693Z" fill="#D51111"/>
<path d="M42.7783 38.0519H45.9738C49.1576 38.0867 52.3299 37.6673 55.3927 36.8067C58.7338 35.8458 60.9066 34.5142 61.9438 32.819C63.0551 31.0268 62.5698 29.4672 60.488 28.1404C59.6775 27.6394 58.8038 27.2462 57.8894 26.9707C57.2591 26.7474 56.5998 26.6141 55.9314 26.5748L55.5383 27.1974C58.9958 28.1836 60.2248 29.5032 59.2251 31.1563C58.4535 32.4088 56.703 33.3913 53.9952 34.1075C52.0074 34.6539 49.955 34.9371 47.8918 34.9496C47.1005 34.9295 46.3088 34.9644 45.5225 35.054C45.2584 35.0732 45.0017 35.1492 44.7704 35.2766C44.5391 35.404 44.3387 35.5799 44.1832 35.7918L42.782 38.0879L42.7783 38.0519Z" fill="#1D1D1B"/>
<path d="M6.17564 44.9475C6.18726 44.717 6.12949 44.4884 6.00964 44.2904C5.88978 44.0924 5.71323 43.9341 5.50234 43.8354C5.23153 43.7147 4.93675 43.6556 4.63978 43.6626C3.99577 43.6694 3.3807 43.9282 2.92923 44.3824C2.36024 44.9693 1.98571 45.7138 1.85558 46.5166C1.65541 47.4704 1.7282 48.147 2.08487 48.5428C2.25372 48.7377 2.46469 48.8925 2.70217 48.9959C2.93966 49.0993 3.1976 49.1487 3.45695 49.1403C3.98179 49.148 4.49418 48.982 4.91274 48.6688C5.3353 48.3547 5.65442 47.9239 5.82989 47.4308H4.01015L4.29403 46.1351H7.56956L6.67425 50.3064H5.5824L5.62608 49.3346C5.32015 49.6389 4.97652 49.9038 4.60338 50.1228C4.08436 50.393 3.50475 50.5291 2.91831 50.5187C2.46946 50.5478 2.02045 50.4641 1.61315 50.2753C1.20586 50.0865 0.853543 49.7988 0.589041 49.439C0.0503983 48.7192 -0.0842606 47.7403 0.181421 46.495C0.400382 45.3295 0.998492 44.2667 1.88469 43.4683C2.70925 42.724 3.7891 42.3174 4.90546 42.331C5.90632 42.331 6.65241 42.5793 7.15102 43.0832C7.39524 43.3261 7.57995 43.621 7.69099 43.9454C7.80202 44.2698 7.83643 44.6151 7.79157 44.9547L6.17564 44.9475Z" fill="#1D1D1B"/>
<path d="M15.6642 43.2849C15.794 43.4846 15.8841 43.7069 15.9299 43.9399C15.977 44.2111 15.9683 44.489 15.9044 44.7569C15.81 45.1491 15.6326 45.517 15.384 45.8365C15.1116 46.1987 14.7289 46.4649 14.2921 46.5959C14.4364 46.6469 14.5679 46.7279 14.6778 46.8334C14.7877 46.939 14.8734 47.0666 14.929 47.2078C15.0231 47.6094 15.0119 48.0281 14.8963 48.4242L14.7835 48.9461C14.7264 49.1826 14.6887 49.4233 14.6706 49.6659C14.6651 49.7506 14.6808 49.8353 14.7163 49.9125C14.7519 49.9898 14.8062 50.0571 14.8744 50.1085L14.8381 50.3029H13.0183C13.0183 50.1301 12.9965 49.9898 12.9965 49.8854C13.0007 49.6604 13.0263 49.4363 13.0729 49.216L13.2148 48.4962C13.3168 48.0031 13.2949 47.672 13.1566 47.5065C13.0248 47.4051 12.8739 47.3309 12.7126 47.2882C12.5513 47.2456 12.383 47.2353 12.2176 47.2582H10.5253L9.8738 50.3065H8.2688L9.93932 42.5363H13.7935C14.2102 42.5237 14.6255 42.5909 15.0164 42.7342C15.2824 42.8507 15.5078 43.0423 15.6642 43.2849ZM11.2568 43.8931L10.8092 45.9805H12.6689C12.961 45.9932 13.2528 45.9492 13.5278 45.8509C13.7076 45.7752 13.8647 45.6549 13.9838 45.5017C14.103 45.3486 14.1804 45.1677 14.2084 44.9764C14.3103 44.5049 14.2084 44.1918 13.9391 44.0299C13.6963 43.921 13.4298 43.874 13.1639 43.8931H11.2568Z" fill="#1D1D1B"/>
<path d="M20.0426 42.5255H21.8988L23.0124 50.2957H21.2327L21.0653 48.6978H18.1537L17.2693 50.2957H15.5515L20.0426 42.5255ZM18.8998 47.3589H20.9088L20.5849 44.2998L18.8998 47.3589Z" fill="#1D1D1B"/>
<path d="M25.6401 42.5255H27.3616L29.3342 47.9636L30.5025 42.5399H32.031L30.3714 50.2957H28.73L26.7028 44.7749L25.52 50.2957H23.9878L25.6401 42.5255Z" fill="#1D1D1B"/>
<path d="M42.3053 42.5255L42.0069 43.9003H39.6558L38.2873 50.2957H36.635L38.0144 43.9003H35.6523L35.9508 42.5255H42.3053Z" fill="#1D1D1B"/>
<path d="M43.2662 42.5255H44.9295L43.9031 47.3013C43.7927 47.6815 43.7716 48.0815 43.8412 48.471C43.9504 48.9065 44.3362 49.126 45.0059 49.126C45.2818 49.1494 45.5592 49.1014 45.8107 48.9865C46.0621 48.8716 46.279 48.694 46.4398 48.471C46.6648 48.1144 46.8146 47.7166 46.8802 47.3013L47.9102 42.5255H49.5807L48.5689 47.3013C48.4463 47.9947 48.1718 48.6531 47.7646 49.2304C47.0877 50.0654 46.0698 50.4828 44.7111 50.4828C43.3523 50.4828 42.5189 50.0618 42.2108 49.2196C42.0488 48.5854 42.0576 47.9203 42.2362 47.2906L43.2662 42.5255Z" fill="#1D1D1B"/>
<path d="M56.9069 43.2848C57.0367 43.4845 57.1268 43.7068 57.1726 43.9398C57.2197 44.2111 57.211 44.4889 57.1471 44.7568C57.0527 45.149 56.8753 45.517 56.6267 45.8365C56.3543 46.1986 55.9716 46.4648 55.5348 46.5959C55.6784 46.648 55.8093 46.7294 55.919 46.8348C56.0287 46.9402 56.1148 47.0673 56.1717 47.2077C56.2658 47.6093 56.2546 48.028 56.139 48.4241L56.0261 48.946C55.9691 49.1825 55.9314 49.4232 55.9133 49.6658C55.9078 49.7505 55.9234 49.8352 55.959 49.9124C55.9946 49.9897 56.0489 50.057 56.1171 50.1084L56.0807 50.3028H54.261C54.261 50.13 54.2392 49.9897 54.2392 49.8853C54.2434 49.6603 54.269 49.4362 54.3156 49.2159L54.4575 48.4961C54.5594 48.003 54.5376 47.6719 54.3993 47.5064C54.2675 47.405 54.1165 47.3308 53.9553 47.2881C53.794 47.2455 53.6257 47.2353 53.4603 47.2581H51.768L51.1165 50.2956H49.5115L51.182 42.5254H55.0362C55.4541 42.5134 55.8704 42.5806 56.2627 42.7234C56.5286 42.8439 56.7526 43.0391 56.9069 43.2848ZM52.4995 43.893L52.0518 45.9804H53.9116C54.2037 45.9931 54.4955 45.9491 54.7705 45.8509C54.9503 45.7751 55.1073 45.6548 55.2265 45.5016C55.3457 45.3485 55.4231 45.1676 55.4511 44.9763C55.553 44.5049 55.4511 44.1917 55.1818 44.0298C54.939 43.921 54.6725 43.8739 54.4066 43.893H52.4995Z" fill="#1D1D1B"/>
<path d="M58.8685 50.2957H57.238L58.9086 42.5255H60.5391L58.8685 50.2957Z" fill="#1D1D1B"/>
<path d="M62.1005 47.8951C62.0592 48.1665 62.1023 48.4439 62.2242 48.6905C62.4207 49.0108 62.8466 49.1727 63.4907 49.1727C63.8193 49.1805 64.1471 49.138 64.4625 49.0468C64.6799 48.9925 64.8777 48.8792 65.0334 48.7195C65.189 48.5599 65.2964 48.3603 65.3432 48.1434C65.376 48.0347 65.3729 47.9185 65.3343 47.8117C65.2957 47.7049 65.2236 47.6131 65.1285 47.5496C64.8234 47.371 64.4879 47.2491 64.1386 47.1897L63.3415 47.0061C62.7856 46.9112 62.254 46.7095 61.7765 46.4123C61.3253 46.0524 61.1809 45.491 61.3434 44.728C61.4937 44.0297 61.901 43.4114 62.4862 42.9933C63.1883 42.5083 64.0328 42.2666 64.8883 42.3059C65.6078 42.2681 66.315 42.5008 66.8682 42.9573C67.3534 43.3892 67.5233 44.019 67.3777 44.8468H65.8018C65.8552 44.6602 65.8449 44.4614 65.7726 44.2812C65.7002 44.101 65.5698 43.9494 65.4015 43.8499C65.1193 43.7076 64.8044 43.6406 64.488 43.6555C64.116 43.6425 63.7474 43.7296 63.4216 43.9074C63.2845 43.9808 63.1656 44.0835 63.0737 44.208C62.9818 44.3325 62.9191 44.4757 62.8902 44.6272C62.8527 44.7426 62.856 44.8671 62.8997 44.9803C62.9434 45.0935 63.0248 45.1886 63.1304 45.2498C63.4322 45.3988 63.7529 45.5065 64.084 45.5702L65.3687 45.8941C65.8155 45.9796 66.2342 46.1724 66.5879 46.4555C66.981 46.8226 67.1023 47.3517 66.9519 48.0427C66.7945 48.7637 66.3633 49.3975 65.7472 49.8134C65.0186 50.3042 64.1496 50.5502 63.2687 50.5151C62.2448 50.5151 61.489 50.2848 61.0013 49.8241C60.7579 49.5767 60.586 49.2692 60.5034 48.9338C60.4209 48.5983 60.4307 48.2471 60.5318 47.9167L62.1005 47.8951Z" fill="#1D1D1B"/>
<path d="M74.5584 42.5255H76.9204L75.2535 50.2957H73.7213L74.8459 45.0376C74.8823 44.8864 74.9333 44.6777 74.9951 44.4042C75.057 44.1306 75.1007 43.9219 75.1298 43.7743L72.2473 50.2957H70.6532L70.5732 43.7743C70.544 43.9219 70.5004 44.1342 70.4458 44.4042C70.3912 44.6741 70.3475 44.8864 70.3111 45.0376L69.1865 50.2957H67.6543L69.3139 42.5255H71.7014L71.8142 48.6438L74.5584 42.5255Z" fill="#1D1D1B"/>
<path d="M82.9729 49.6046C82.1929 50.2291 81.2097 50.5515 80.2069 50.5115C79.081 50.5115 78.2864 50.2092 77.823 49.6046C77.1873 48.8632 77.0199 47.7943 77.3208 46.3979C77.6216 45.0015 78.2488 43.9338 79.2024 43.1948C79.9823 42.5703 80.9656 42.2479 81.9684 42.2879C83.0942 42.2879 83.8888 42.5902 84.3522 43.1948C84.9928 43.9146 85.1602 44.9823 84.8545 46.3979C84.6358 47.6551 83.9681 48.793 82.9729 49.6046ZM83.2131 46.3979C83.4096 45.5221 83.3623 44.8443 83.0711 44.3645C82.9305 44.1272 82.7252 43.9339 82.4787 43.8066C82.2322 43.6793 81.9545 43.6232 81.6772 43.6447C81.3577 43.6444 81.0415 43.7081 80.7476 43.8318C80.4536 43.9554 80.188 44.1367 79.9667 44.3645C79.4343 44.9252 79.0811 45.6288 78.9512 46.3871C78.7668 47.2604 78.8154 47.9359 79.0968 48.4133C79.2392 48.6506 79.4459 48.8437 79.6935 48.9709C79.9412 49.0981 80.2198 49.1543 80.498 49.1331C80.8166 49.1343 81.132 49.071 81.4249 48.9472C81.7178 48.8235 81.982 48.6418 82.2013 48.4133C82.7307 47.8539 83.0825 47.1531 83.2131 46.3979Z" fill="#1D1D1B"/>
<path d="M0.654905 54.9564C0.638533 55.0658 0.656308 55.1775 0.705858 55.2767C0.782287 55.4027 0.953342 55.4674 1.21175 55.4674C1.34337 55.47 1.47464 55.453 1.60117 55.4171C1.69011 55.3974 1.77155 55.3531 1.83599 55.2894C1.90044 55.2256 1.94522 55.1451 1.96511 55.0572C1.97944 55.0134 1.97903 54.9663 1.96393 54.9228C1.94884 54.8793 1.91988 54.8418 1.88141 54.816C1.75841 54.7461 1.62425 54.6974 1.48471 54.6721L1.16807 54.5965C0.944262 54.5597 0.73018 54.4789 0.538439 54.3589C0.4468 54.2754 0.381807 54.1672 0.351423 54.0477C0.321039 53.9281 0.326584 53.8024 0.367383 53.6859C0.42694 53.4077 0.58912 53.1614 0.822318 52.9949C1.10319 52.798 1.44294 52.7004 1.78678 52.7178C2.07362 52.703 2.35558 52.7955 2.57655 52.9769C2.67667 53.0728 2.74852 53.1937 2.78443 53.3269C2.82033 53.46 2.81893 53.6003 2.78036 53.7327H2.15073C2.17104 53.658 2.16642 53.5787 2.13758 53.5068C2.10873 53.4348 2.05718 53.3739 1.99059 53.3332C1.87762 53.2782 1.75246 53.2522 1.62665 53.2577C1.4769 53.2521 1.32845 53.2869 1.19718 53.3584C1.14356 53.3873 1.09691 53.4274 1.06047 53.4759C1.02403 53.5243 0.998651 53.58 0.986094 53.6391C0.971415 53.6856 0.972743 53.7355 0.98987 53.7811C1.007 53.8267 1.03896 53.8654 1.08072 53.8911C1.2014 53.9508 1.33008 53.9932 1.46287 54.017L1.97603 54.1466C2.1552 54.1807 2.32288 54.2587 2.46373 54.3733C2.54425 54.4557 2.60039 54.5583 2.62606 54.6699C2.65173 54.7816 2.64593 54.8981 2.6093 55.0068C2.54808 55.2986 2.37617 55.5562 2.12889 55.7266C1.83679 55.9232 1.4884 56.0217 1.13531 56.0073C0.808507 56.033 0.484174 55.9338 0.229082 55.7302C0.13183 55.6311 0.0632903 55.508 0.0306361 55.3738C-0.00201801 55.2396 0.00241554 55.0991 0.0434701 54.9672L0.654905 54.9564Z" fill="#1D1D1B"/>
<path d="M9.82308 53.3619H8.17076L8.02882 54.0205H9.55739L9.43729 54.5604H7.91235L7.7413 55.3593H9.48097L9.36087 55.9208H6.96973L7.63575 52.8113H9.94318L9.82308 53.3619Z" fill="#1D1D1B"/>
<path d="M16.9053 53.1064C16.9573 53.1851 16.9931 53.2731 17.0108 53.3655C17.0341 53.4735 17.0341 53.5851 17.0108 53.693C16.9746 53.8514 16.9038 54 16.8034 54.1285C16.6954 54.274 16.5419 54.3803 16.3667 54.4308C16.4241 54.4517 16.4764 54.4842 16.5203 54.5264C16.5642 54.5686 16.5987 54.6194 16.6214 54.6755C16.6627 54.8349 16.6627 55.002 16.6214 55.1614L16.5778 55.3701C16.5553 55.466 16.5407 55.5635 16.5341 55.6617C16.5314 55.6953 16.5373 55.7291 16.5513 55.7599C16.5653 55.7907 16.5869 55.8176 16.6141 55.838V55.9172H15.8862C15.8862 55.8488 15.8862 55.7912 15.8862 55.748C15.8871 55.6585 15.8969 55.5693 15.9154 55.4817L15.9736 55.1938C15.9965 55.1295 16.006 55.0613 16.0016 54.9933C15.9972 54.9253 15.979 54.8588 15.9481 54.7979C15.8935 54.7295 15.7661 54.6971 15.5842 54.6971H14.9072L14.6452 55.9172H14.0046L14.6707 52.8077H16.2138C16.3811 52.8035 16.5478 52.8304 16.7051 52.8868C16.7894 52.9423 16.8582 53.0178 16.9053 53.1064ZM15.1438 53.3475L14.9618 54.1825H15.7079C15.8241 54.1868 15.9401 54.1697 16.05 54.1321C16.1237 54.1014 16.1878 54.0519 16.2357 53.9886C16.2837 53.9254 16.3138 53.8507 16.323 53.7722C16.363 53.5814 16.323 53.4555 16.2138 53.3907C16.1167 53.348 16.0105 53.3295 15.9044 53.3367L15.1438 53.3475Z" fill="#1D1D1B"/>
<path d="M21.7423 55.9172H21.0872L21.7568 52.8077H22.4083L21.7423 55.9172Z" fill="#1D1D1B"/>
<path d="M29.2796 53.3619H27.6164L27.4744 54.0205H29.003L28.8866 54.5604H27.358L27.1869 55.3593H28.9302L28.8101 55.9208H26.4263L27.0959 52.8113H29.3997L29.2796 53.3619Z" fill="#1D1D1B"/>
<path d="M34.0691 54.9563C34.0527 55.0657 34.0705 55.1774 34.12 55.2766C34.181 55.3483 34.2594 55.4035 34.3479 55.4368C34.4365 55.4702 34.5321 55.4807 34.6259 55.4673C34.7575 55.4699 34.8888 55.4529 35.0153 55.4169C35.1043 55.3972 35.1857 55.353 35.2501 55.2892C35.3146 55.2255 35.3594 55.145 35.3793 55.057C35.3936 55.0133 35.3932 54.9661 35.3781 54.9227C35.363 54.8792 35.334 54.8417 35.2956 54.8159C35.1728 54.7454 35.0386 54.6967 34.8989 54.6719L34.5822 54.5964C34.3584 54.5595 34.1443 54.4788 33.9526 54.3588C33.8609 54.2753 33.796 54.1671 33.7656 54.0475C33.7352 53.928 33.7407 53.8023 33.7815 53.6858C33.8411 53.4076 34.0033 53.1613 34.2365 52.9948C34.5176 52.7984 34.8572 52.7008 35.2009 52.7177C35.4878 52.7028 35.7697 52.7954 35.9907 52.9768C36.0889 53.0716 36.1596 53.1908 36.1954 53.3218C36.2313 53.4528 36.231 53.5909 36.1945 53.7218H35.5649C35.5852 53.647 35.5806 53.5678 35.5517 53.4958C35.5229 53.4239 35.4713 53.363 35.4047 53.3223C35.2921 53.2664 35.1667 53.2403 35.0408 53.2467C34.891 53.2412 34.7426 53.276 34.6113 53.3475C34.5577 53.3764 34.5111 53.4165 34.4746 53.465C34.4382 53.5134 34.4128 53.5691 34.4002 53.6282C34.3856 53.6747 34.3869 53.7246 34.404 53.7702C34.4211 53.8158 34.4531 53.8545 34.4949 53.8802C34.6157 53.9395 34.7443 53.9819 34.877 54.0061L35.3902 54.1357C35.5699 54.1713 35.7384 54.2491 35.8815 54.3624C35.9614 54.4451 36.0169 54.5479 36.0419 54.6595C36.0669 54.7712 36.0605 54.8875 36.0235 54.9958C35.9636 55.2883 35.7914 55.5463 35.543 55.7156C35.2523 55.9123 34.9051 56.0107 34.5531 55.9964C34.2262 56.0232 33.9014 55.9239 33.6469 55.7192C33.5483 55.621 33.4786 55.4981 33.4453 55.3637C33.412 55.2293 33.4162 55.0884 33.4576 54.9563H34.0691Z" fill="#1D1D1B"/>
<path d="M46.5417 53.1317C46.8372 52.8832 47.213 52.7479 47.6008 52.7502C47.8075 52.7227 48.0178 52.757 48.2046 52.8487C48.3915 52.9405 48.5462 53.0854 48.649 53.2649C48.7421 53.4431 48.7752 53.6461 48.7436 53.8443H48.0849C48.0832 53.7258 48.0519 53.6096 47.9939 53.506C47.9372 53.4335 47.8625 53.3768 47.777 53.3415C47.6915 53.3062 47.5982 53.2934 47.5062 53.3044C47.3874 53.3047 47.27 53.3303 47.162 53.3793C47.054 53.4284 46.9579 53.4998 46.8802 53.5888C46.6872 53.8212 46.5615 54.1011 46.5163 54.3985C46.4327 54.6555 46.4496 54.9342 46.5636 55.1795C46.6146 55.2641 46.688 55.3333 46.7758 55.3796C46.8637 55.4259 46.9628 55.4476 47.0622 55.4422C47.1688 55.445 47.2749 55.4267 47.3743 55.3884C47.4737 55.3501 47.5643 55.2925 47.6409 55.2191C47.7407 55.1132 47.8219 54.9916 47.8811 54.8592H48.5325C48.4118 55.1856 48.1997 55.4714 47.9211 55.6834C47.6442 55.8951 47.303 56.008 46.953 56.0037C46.7666 56.0204 46.579 55.9894 46.4082 55.9138C46.2374 55.8382 46.0892 55.7204 45.9776 55.5718C45.8754 55.3936 45.8111 55.1967 45.7886 54.9931C45.766 54.7895 45.7858 54.5835 45.8466 54.3877C45.9271 53.9031 46.1723 53.46 46.5417 53.1317Z" fill="#1D1D1B"/>
<path d="M55.7276 53.3619H54.0644L53.9224 54.0205H55.451L55.3309 54.5604H53.806L53.6349 55.3593H55.3746L55.2545 55.9208H52.8743L53.5403 52.8113H55.8477L55.7276 53.3619Z" fill="#1D1D1B"/>
<path d="M60.488 52.8077H61.1759L61.9584 54.9671L62.4279 52.8077H63.0393L62.3696 55.9173H61.7145L60.9029 53.7219L60.4298 55.9317H59.8184L60.488 52.8077Z" fill="#1D1D1B"/>
<path d="M69.9979 52.8077L69.8778 53.3584H68.9497L68.4038 55.9172H67.7414L68.291 53.3584H67.3447L67.4648 52.8077H69.9979Z" fill="#1D1D1B"/>
<path d="M76.6473 53.3619H74.9841L74.8421 54.0205H76.3707L76.2542 54.5604H74.7257L74.5546 55.3593H76.2943L76.1742 55.9208H73.7939L74.46 52.8113H76.7674L76.6473 53.3619Z" fill="#1D1D1B"/>
<path d="M83.7188 53.1064C83.7707 53.1851 83.8066 53.2731 83.8243 53.3655C83.8477 53.4735 83.8477 53.5851 83.8243 53.693C83.7864 53.8508 83.7158 53.9991 83.6168 54.1285C83.5068 54.2735 83.3523 54.3795 83.1765 54.4308C83.2339 54.4517 83.2863 54.4842 83.3301 54.5264C83.374 54.5686 83.4085 54.6194 83.4312 54.6755C83.4745 54.8347 83.4745 55.0023 83.4312 55.1614L83.3876 55.3701C83.3652 55.466 83.3506 55.5635 83.3439 55.6617C83.3412 55.6953 83.3472 55.7291 83.3611 55.7599C83.3751 55.7907 83.3967 55.8176 83.424 55.838V55.9172H82.6961C82.6961 55.8488 82.6961 55.7912 82.6961 55.748C82.697 55.6585 82.7067 55.5693 82.7252 55.4817L82.7834 55.1938C82.8234 54.9958 82.8162 54.8627 82.7579 54.7979C82.6997 54.7331 82.576 54.6971 82.394 54.6971H81.717L81.4586 55.9172H80.8145L81.4841 52.8077H83.0236C83.191 52.8035 83.3576 52.8304 83.5149 52.8868C83.6012 52.9411 83.6715 53.0168 83.7188 53.1064ZM81.9572 53.3475L81.7789 54.1825H82.5068C82.623 54.187 82.7391 54.1699 82.8489 54.1321C82.9226 54.1014 82.9867 54.0519 83.0346 53.9886C83.0826 53.9254 83.1127 53.8507 83.1219 53.7722C83.1619 53.5814 83.1219 53.4555 83.0127 53.3907C82.9157 53.3476 82.8094 53.329 82.7033 53.3367L81.9572 53.3475Z" fill="#1D1D1B"/>
</g>
<defs>
<clipPath id="clip0_129_118">
<rect width="85" height="56" fill="white"/>
</clipPath>
</defs>
</svg>
