<svg width="120" height="79" viewBox="0 0 120 79" fill="none" xmlns="http://www.w3.org/2000/svg">
<g clip-path="url(#clip0_87_101)">
<path d="M52.388 -0.00014132H44.8864C37.1309 -0.0707438 29.4992 1.92328 22.7926 5.77255C14.9656 10.21 9.84295 16.3363 7.42463 24.1517C4.82475 32.3902 5.96541 39.5896 10.8466 45.7498C12.5471 47.8831 14.6089 49.7091 16.9404 51.1468C18.9031 52.3551 20.4343 52.9593 21.5338 52.9593L22.4484 50.0857C14.3508 45.5569 11.4734 39.4999 13.8164 31.9146C15.6301 26.1419 19.7355 21.6284 26.0862 18.3283C31.0393 15.7288 35.8074 14.4443 40.4009 14.4443C43.1035 14.4443 44.9635 14.292 45.9603 13.967C46.729 13.7035 47.4189 13.2543 47.9672 12.6602C48.5155 12.0661 48.9048 11.346 49.0996 10.5653L52.388 -0.00014132Z" fill="white"/>
<path d="M118.551 21.6388H114.04C109.372 21.5954 104.779 22.795 100.742 25.1116C96.0256 27.7822 92.9581 31.4681 91.4938 36.1746C89.925 41.1367 90.61 45.4708 93.549 49.1771C94.5737 50.4606 95.8148 51.5599 97.2176 52.4265C98.3994 53.1525 99.3242 53.5181 99.9819 53.5181L100.537 51.7868C95.6659 49.0553 93.9327 45.4082 95.3371 40.8456C96.4264 37.3728 98.8978 34.6566 102.721 32.6714C105.354 31.2015 108.314 30.3974 111.337 30.3309C112.46 30.3833 113.585 30.2877 114.682 30.0465C115.143 29.8896 115.557 29.6217 115.887 29.2672C116.217 28.9127 116.453 28.4826 116.573 28.0157L118.551 21.6591V21.6388Z" fill="white"/>
<path d="M96.4421 21.8011H91.9308C87.4355 21.7553 82.9569 22.3503 78.6335 23.5679C73.9167 24.9286 70.8493 26.8071 69.3849 29.1984C67.8161 31.7268 68.5012 33.9269 71.4401 35.7987C72.5851 36.5042 73.8184 37.059 75.1087 37.4488C75.9986 37.7638 76.9294 37.9518 77.873 38.0072L78.4279 37.1238C73.5468 35.7395 71.8118 33.8778 73.2231 31.539C74.3123 29.7671 76.7837 28.3861 80.6065 27.3757C83.4128 26.6049 86.3103 26.2053 89.2231 26.1877C90.3401 26.2135 91.4576 26.1643 92.5679 26.0405C92.9404 26.0159 93.303 25.9114 93.6304 25.7343C93.9578 25.5572 94.2422 25.3117 94.4639 25.0149L96.4421 21.7808V21.8011Z" fill="white"/>
<path d="M58.4354 13.4899H50.2145L42.0552 39.7792H55.4759L63.0237 15.5563H82.5484L87.4193 0H66.6974L63.7636 9.32668C63.2292 10.9683 62.6675 12.0531 62.0783 12.5811C61.3692 13.1853 60.1412 13.4899 58.4354 13.4899Z" fill="white"/>
<path d="M36.5216 22.207C33.2332 22.207 31.0907 23.7708 30.0939 26.8729L26.0913 39.779H39.5325L45.0406 22.207H36.5216Z" fill="white"/>
<path d="M60.3931 53.6802H64.9043C69.3992 53.7293 73.8777 53.1376 78.2017 51.9235C82.9184 50.5679 85.9859 48.6894 87.4502 46.2981C89.019 43.7697 88.334 41.5696 85.395 39.6978C84.2507 38.9911 83.0172 38.4363 81.7264 38.0477C80.8365 37.7327 79.9057 37.5447 78.9621 37.4893L78.4072 38.3676C83.2884 39.7587 85.0233 41.6203 83.6121 43.9524C82.5228 45.7193 80.0514 47.1053 76.2286 48.1157C73.4223 48.8866 70.5248 49.2861 67.6121 49.3037C66.495 49.2753 65.3773 49.3245 64.2672 49.4509C63.8944 49.478 63.532 49.5852 63.2054 49.765C62.8789 49.9447 62.5959 50.1928 62.3764 50.4917L60.3982 53.731L60.3931 53.6802Z" fill="white"/>
<path d="M8.71875 63.4078C8.73516 63.0828 8.6536 62.7602 8.4844 62.4809C8.31519 62.2016 8.06594 61.9782 7.7682 61.839C7.38588 61.6687 6.96974 61.5854 6.55048 61.5953C5.64128 61.6049 4.77296 61.97 4.13558 62.6107C3.33231 63.4387 2.80356 64.489 2.61984 65.6215C2.33725 66.9669 2.44001 67.9214 2.94354 68.4799C3.18193 68.7548 3.47976 68.9732 3.81503 69.1191C4.15031 69.2649 4.51446 69.3345 4.8806 69.3227C5.62155 69.3335 6.34493 69.0994 6.93584 68.6576C7.5324 68.2144 7.98291 67.6067 8.23064 66.9111H5.66159L6.06236 65.0833H10.6866L9.42267 70.9677H7.88124L7.9429 69.5969C7.511 70.0262 7.02588 70.3998 6.4991 70.7088C5.76636 71.0899 4.94809 71.282 4.12017 71.2672C3.48649 71.3083 2.8526 71.1902 2.2776 70.9239C1.70259 70.6575 1.2052 70.2517 0.831788 69.7441C0.0713516 68.7287 -0.118755 67.3477 0.256325 65.591C0.565446 63.9468 1.40984 62.4474 2.66095 61.3211C3.82502 60.2711 5.34952 59.6976 6.92556 59.7168C8.33853 59.7168 9.39184 60.0671 10.0958 60.7779C10.4405 61.1205 10.7013 61.5366 10.8581 61.9942C11.0148 62.4519 11.0634 62.9389 11.0001 63.418L8.71875 63.4078Z" fill="white"/>
<path d="M22.1144 61.0625C22.2976 61.3443 22.4249 61.6579 22.4895 61.9866C22.556 62.3692 22.5438 62.7612 22.4535 63.1391C22.3202 63.6924 22.0698 64.2115 21.7188 64.6622C21.3342 65.1731 20.7939 65.5486 20.1774 65.7335C20.381 65.8054 20.5667 65.9196 20.7218 66.0685C20.877 66.2175 20.9979 66.3975 21.0765 66.5966C21.2094 67.1632 21.1935 67.7539 21.0303 68.3127L20.871 69.0489C20.7905 69.3826 20.7372 69.7222 20.7117 70.0643C20.7039 70.1838 20.726 70.3033 20.7762 70.4123C20.8264 70.5212 20.9031 70.6162 20.9995 70.6888L20.9481 70.963H18.379C18.379 70.7193 18.3482 70.5212 18.3482 70.374C18.3542 70.0566 18.3903 69.7404 18.4561 69.4297L18.6565 68.4142C18.8004 67.7187 18.7695 67.2516 18.5743 67.018C18.3882 66.875 18.1751 66.7703 17.9474 66.7101C17.7197 66.65 17.4821 66.6355 17.2486 66.6677H14.8594L13.9397 70.968H11.6738L14.0322 60.0065H19.4734C20.0617 59.9887 20.648 60.0835 21.1998 60.2857C21.5754 60.4501 21.8936 60.7203 22.1144 61.0625ZM15.8922 61.9206L15.2602 64.8653H17.8858C18.2982 64.8832 18.7101 64.8212 19.0984 64.6825C19.3522 64.5756 19.5739 64.406 19.7421 64.1899C19.9104 63.9738 20.0196 63.7186 20.0592 63.4488C20.203 62.7837 20.0592 62.342 19.679 62.1135C19.3362 61.96 18.9599 61.8937 18.5846 61.9206H15.8922Z" fill="white"/>
<path d="M28.2955 59.9912H30.9159L32.4882 70.9527H29.9756L29.7393 68.6985H25.6288L24.3803 70.9527H21.9551L28.2955 59.9912ZM26.6821 66.8098H29.5183L29.0611 62.4942L26.6821 66.8098Z" fill="white"/>
<path d="M36.1979 59.9912H38.6282L41.4131 67.6627L43.0624 60.0115H45.2204L42.8774 70.9527H40.5602L37.6982 63.1644L36.0284 70.9527H33.8652L36.1979 59.9912Z" fill="white"/>
<path d="M59.7249 59.9912L59.3036 61.9307H55.9844L54.0525 70.9527H51.7198L53.6671 61.9307H50.3325L50.7538 59.9912H59.7249Z" fill="white"/>
<path d="M61.0815 59.9912H63.4296L61.9807 66.7285C61.8249 67.2648 61.795 67.8292 61.8934 68.3786C62.0475 68.9929 62.5921 69.3026 63.5375 69.3026C63.9271 69.3357 64.3187 69.2678 64.6737 69.1058C65.0287 68.9438 65.3348 68.6931 65.5619 68.3786C65.8795 67.8756 66.091 67.3143 66.1837 66.7285L67.6377 59.9912H69.9961L68.5677 66.7285C68.3946 67.7066 68.007 68.6354 67.4322 69.4499C66.4765 70.6278 65.0396 71.2167 63.1214 71.2167C61.2031 71.2167 60.0265 70.6227 59.5915 69.4346C59.3629 68.54 59.3753 67.6018 59.6275 66.7133L61.0815 59.9912Z" fill="white"/>
<path d="M80.339 61.0625C80.5222 61.3442 80.6495 61.6578 80.7141 61.9865C80.7806 62.3691 80.7684 62.7611 80.6782 63.139C80.5449 63.6923 80.2945 64.2114 79.9434 64.6621C79.5588 65.173 79.0186 65.5485 78.402 65.7334C78.6047 65.807 78.7895 65.9219 78.9444 66.0706C79.0993 66.2193 79.2208 66.3984 79.3011 66.5965C79.434 67.1631 79.4181 67.7538 79.2549 68.3126L79.0956 69.0488C79.0151 69.3825 78.9619 69.7221 78.9363 70.0642C78.9285 70.1837 78.9506 70.3032 79.0008 70.4121C79.051 70.5211 79.1277 70.6161 79.2241 70.6887L79.1727 70.9628H76.6037C76.6037 70.7191 76.5728 70.5211 76.5728 70.3739C76.5788 70.0565 76.615 69.7403 76.6807 69.4296L76.8811 68.4141C77.025 67.7186 76.9941 67.2515 76.7989 67.0179C76.6129 66.8749 76.3997 66.7702 76.172 66.71C75.9443 66.6499 75.7067 66.6354 75.4733 66.6676H73.0841L72.1643 70.9527H69.8984L72.2568 59.9912H77.6981C78.288 59.9742 78.8757 60.069 79.4296 60.2704C79.8049 60.4404 80.1212 60.7159 80.339 61.0625ZM74.1168 61.9205L73.4848 64.8652H76.1104C76.5228 64.8831 76.9347 64.821 77.323 64.6824C77.5768 64.5755 77.7985 64.4059 77.9667 64.1898C78.135 63.9737 78.2442 63.7185 78.2838 63.4487C78.4277 62.7836 78.2838 62.3419 77.9036 62.1134C77.5608 61.9599 77.1846 61.8936 76.8092 61.9205H74.1168Z" fill="white"/>
<path d="M83.1085 70.9527H80.8066L83.165 59.9912H85.4669L83.1085 70.9527Z" fill="white"/>
<path d="M87.6713 67.5664C87.613 67.9493 87.6739 68.3406 87.846 68.6884C88.1234 69.1403 88.7246 69.3688 89.634 69.3688C90.0978 69.3797 90.5606 69.3197 91.0059 69.1911C91.3129 69.1146 91.5921 68.9546 91.8118 68.7294C92.0316 68.5042 92.1831 68.2227 92.2493 67.9167C92.2956 67.7634 92.2912 67.5994 92.2367 67.4488C92.1821 67.2981 92.0804 67.1685 91.9461 67.079C91.5155 66.8271 91.0418 66.655 90.5486 66.5713L89.4233 66.3123C88.6386 66.1784 87.888 65.8938 87.214 65.4746C86.5769 64.9669 86.373 64.1749 86.6025 63.0985C86.8147 62.1133 87.3896 61.2412 88.2159 60.6513C89.207 59.9671 90.3993 59.6262 91.607 59.6816C92.6227 59.6283 93.6213 59.9565 94.4021 60.6006C95.0872 61.2098 95.327 62.0983 95.1215 63.2661H92.8967C92.9721 63.0029 92.9576 62.7224 92.8554 62.4682C92.7532 62.214 92.5691 62.0001 92.3315 61.8597C91.9331 61.659 91.4885 61.5644 91.0418 61.5855C90.5167 61.5672 89.9964 61.69 89.5364 61.9409C89.3428 62.0444 89.175 62.1893 89.0452 62.3649C88.9155 62.5406 88.827 62.7426 88.7862 62.9564C88.7332 63.1191 88.738 63.2947 88.7996 63.4544C88.8613 63.6141 88.9762 63.7482 89.1253 63.8347C89.5513 64.0448 90.0042 64.1968 90.4715 64.2866L92.2853 64.7435C92.916 64.8642 93.5071 65.1361 94.0065 65.5355C94.5614 66.0534 94.7327 66.7997 94.5203 67.7745C94.2982 68.7917 93.6894 69.6859 92.8196 70.2725C91.791 70.9649 90.5642 71.312 89.3206 71.2625C87.8751 71.2625 86.8081 70.9376 86.1196 70.2877C85.7759 69.9386 85.5332 69.5049 85.4167 69.0316C85.3001 68.5584 85.3139 68.063 85.4567 67.5968L87.6713 67.5664Z" fill="white"/>
<path d="M105.259 59.9912H108.594L106.241 70.9527H104.077L105.665 63.535C105.716 63.3218 105.788 63.0273 105.876 62.6415C105.963 62.2556 106.025 61.9611 106.066 61.753L101.996 70.9527H99.746L99.6329 61.753C99.5918 61.9611 99.5302 62.2607 99.4531 62.6415C99.376 63.0222 99.3144 63.3218 99.263 63.535L97.6753 70.9527H95.5122L97.8552 59.9912H101.226L101.385 68.6223L105.259 59.9912Z" fill="white"/>
<path d="M117.138 69.9778C116.037 70.8589 114.649 71.3137 113.233 71.2573C111.644 71.2573 110.522 70.8308 109.868 69.9778C108.97 68.9319 108.734 67.424 109.159 65.4541C109.584 63.4842 110.469 61.978 111.815 60.9355C112.916 60.0544 114.304 59.5996 115.72 59.6561C117.309 59.6561 118.431 60.0825 119.086 60.9355C119.99 61.9509 120.226 63.4571 119.795 65.4541C119.486 67.2277 118.543 68.8329 117.138 69.9778ZM117.477 65.4541C117.755 64.2187 117.688 63.2625 117.277 62.5855C117.078 62.2508 116.789 61.9781 116.441 61.7985C116.093 61.6189 115.7 61.5398 115.309 61.5701C114.858 61.5698 114.412 61.6595 113.997 61.834C113.582 62.0085 113.207 62.2642 112.894 62.5855C112.143 63.3766 111.644 64.3691 111.461 65.4389C111.2 66.6709 111.269 67.6237 111.666 68.2973C111.867 68.632 112.159 68.9045 112.509 69.0839C112.858 69.2634 113.252 69.3426 113.644 69.3127C114.094 69.3144 114.539 69.2251 114.953 69.0505C115.366 68.8759 115.739 68.6196 116.049 68.2973C116.796 67.5081 117.293 66.5195 117.477 65.4541Z" fill="white"/>
<path d="M0.925003 77.5275C0.901889 77.6818 0.926984 77.8395 0.996936 77.9794C1.10484 78.1571 1.34633 78.2485 1.71113 78.2485C1.89696 78.2521 2.08228 78.2281 2.2609 78.1774C2.38646 78.1496 2.50144 78.0871 2.59242 77.9972C2.6834 77.9073 2.74662 77.7937 2.77471 77.6697C2.79493 77.608 2.79435 77.5414 2.77304 77.4801C2.75173 77.4188 2.71085 77.3659 2.65654 77.3295C2.48289 77.2308 2.29349 77.1622 2.09649 77.1264L1.64947 77.0198C1.33351 76.9678 1.03127 76.8539 0.760581 76.6847C0.631207 76.5668 0.539452 76.4142 0.496557 76.2456C0.453662 76.0769 0.46149 75.8996 0.51909 75.7353C0.60317 75.3427 0.832129 74.9952 1.16135 74.7604C1.55788 74.4827 2.03753 74.3449 2.52295 74.3695C2.92789 74.3486 3.32595 74.4791 3.63791 74.7351C3.77925 74.8703 3.8807 75.0409 3.93138 75.2287C3.98207 75.4166 3.98009 75.6145 3.92565 75.8013H3.03676C3.06542 75.6958 3.05891 75.584 3.01818 75.4825C2.97746 75.381 2.90469 75.2951 2.81068 75.2377C2.65119 75.1601 2.47449 75.1234 2.29687 75.1311C2.08547 75.1232 1.87588 75.1724 1.69057 75.2732C1.61487 75.314 1.54902 75.3705 1.49757 75.4389C1.44612 75.5073 1.41029 75.5859 1.39256 75.6692C1.37184 75.7347 1.37372 75.8052 1.39789 75.8695C1.42207 75.9338 1.46719 75.9884 1.52616 76.0247C1.69653 76.1089 1.87819 76.1688 2.06566 76.2024L2.79012 76.3851C3.04307 76.4332 3.27978 76.5432 3.47863 76.705C3.59231 76.8211 3.67157 76.9658 3.70781 77.1234C3.74404 77.281 3.73587 77.4453 3.68415 77.5986C3.59771 78.0103 3.35502 78.3736 3.00592 78.614C2.59354 78.8915 2.1017 79.0303 1.60323 79.01C1.14185 79.0463 0.68397 78.9064 0.32384 78.6191C0.186543 78.4793 0.0897818 78.3057 0.0436818 78.1164C-0.00241812 77.927 0.003841 77.7289 0.0618003 77.5427L0.925003 77.5275Z" fill="white"/>
<path d="M13.8676 75.2787H11.5349L11.3345 76.2079H13.4925L13.323 76.9694H11.1701L10.9286 78.0965H13.3846L13.2151 78.8886H9.83936L10.7796 74.502H14.0372L13.8676 75.2787Z" fill="white"/>
<path d="M23.8665 74.9181C23.9399 75.0291 23.9905 75.1533 24.0155 75.2836C24.0484 75.4359 24.0484 75.5934 24.0155 75.7457C23.9643 75.969 23.8644 76.1787 23.7227 76.36C23.5702 76.5653 23.3535 76.7152 23.1061 76.7865C23.1872 76.8159 23.2611 76.8618 23.3231 76.9213C23.385 76.9808 23.4336 77.0525 23.4658 77.1317C23.5241 77.3565 23.5241 77.5923 23.4658 77.8171L23.4041 78.1116C23.3725 78.2468 23.3519 78.3843 23.3425 78.5228C23.3387 78.5703 23.3471 78.618 23.3668 78.6615C23.3866 78.7049 23.4171 78.7428 23.4555 78.7716V78.8833H22.4279C22.4279 78.7868 22.4279 78.7056 22.4279 78.6447C22.4291 78.5184 22.4429 78.3926 22.469 78.269L22.5512 77.8628C22.5835 77.7721 22.5969 77.6759 22.5907 77.5799C22.5845 77.484 22.5589 77.3902 22.5152 77.3043C22.4382 77.2078 22.2583 77.1622 22.0014 77.1622H21.0457L20.6758 78.8833H19.7715L20.7118 74.4967H22.8903C23.1265 74.4909 23.3618 74.5287 23.5839 74.6084C23.7029 74.6866 23.8001 74.7931 23.8665 74.9181ZM21.3797 75.2582L21.1228 76.4361H22.1761C22.3402 76.4422 22.5039 76.4181 22.6591 76.3651C22.7631 76.3217 22.8535 76.2519 22.9212 76.1627C22.989 76.0735 23.0315 75.9681 23.0444 75.8573C23.101 75.5883 23.0445 75.4105 22.8903 75.3192C22.7532 75.259 22.6033 75.2328 22.4536 75.243L21.3797 75.2582Z" fill="white"/>
<path d="M30.6949 78.8832H29.77L30.7154 74.4966H31.6351L30.6949 78.8832Z" fill="white"/>
<path d="M41.3359 75.2787H38.9878L38.7874 76.2079H40.9454L40.781 76.9694H38.623L38.3815 78.0965H40.8426L40.6731 78.8886H37.3076L38.253 74.502H41.5054L41.3359 75.2787Z" fill="white"/>
<path d="M48.0975 77.5278C48.0744 77.6821 48.0995 77.8398 48.1694 77.9797C48.2555 78.0809 48.3662 78.1587 48.4912 78.2058C48.6162 78.2528 48.7512 78.2676 48.8836 78.2488C49.0694 78.2524 49.2548 78.2284 49.4334 78.1777C49.5589 78.1499 49.6739 78.0875 49.7649 77.9976C49.8559 77.9077 49.9191 77.794 49.9472 77.67C49.9674 77.6083 49.9668 77.5417 49.9455 77.4804C49.9242 77.4191 49.8833 77.3662 49.829 77.3298C49.6558 77.2303 49.4662 77.1616 49.269 77.1267L48.822 77.0201C48.506 76.9681 48.2038 76.8542 47.9331 76.685C47.8037 76.5671 47.7119 76.4145 47.669 76.2459C47.6261 76.0772 47.634 75.8999 47.6916 75.7356C47.7757 75.3431 48.0046 74.9956 48.3338 74.7608C48.7307 74.4837 49.2101 74.3461 49.6954 74.3698C50.1004 74.3489 50.4984 74.4794 50.8104 74.7354C50.949 74.8692 51.0488 75.0372 51.0994 75.222C51.1501 75.4069 51.1496 75.6017 51.0981 75.7863H50.2092C50.2379 75.6809 50.2314 75.5691 50.1907 75.4676C50.1499 75.366 50.0772 75.2802 49.9832 75.2228C49.8241 75.1439 49.6471 75.1071 49.4694 75.1162C49.2579 75.1083 49.0484 75.1575 48.8631 75.2583C48.7874 75.2991 48.7215 75.3556 48.6701 75.424C48.6186 75.4924 48.5828 75.571 48.5651 75.6543C48.5443 75.7198 48.5462 75.7903 48.5704 75.8546C48.5946 75.9189 48.6397 75.9735 48.6986 76.0097C48.8693 76.0934 49.0508 76.1532 49.2381 76.1874L49.9626 76.3702C50.2164 76.4205 50.4542 76.5302 50.6563 76.6901C50.7691 76.8067 50.8474 76.9517 50.8827 77.1092C50.918 77.2667 50.909 77.4308 50.8566 77.5837C50.7722 77.9962 50.5291 78.3602 50.1784 78.5991C49.7679 78.8765 49.2777 79.0154 48.7809 78.9951C48.3193 79.0329 47.8608 78.8928 47.5015 78.6041C47.3623 78.4655 47.264 78.2922 47.2169 78.1026C47.1698 77.913 47.1758 77.7143 47.2343 77.5278H48.0975Z" fill="white"/>
<path d="M65.7059 74.9535C66.123 74.603 66.6536 74.4121 67.2011 74.4154C67.4929 74.3766 67.7898 74.425 68.0536 74.5544C68.3173 74.6838 68.5358 74.8882 68.6809 75.1414C68.8123 75.3929 68.8591 75.6792 68.8145 75.9588H67.8845C67.8821 75.7917 67.838 75.6278 67.756 75.4816C67.676 75.3793 67.5705 75.2994 67.4498 75.2495C67.3291 75.1997 67.1974 75.1817 67.0675 75.1972C66.8997 75.1977 66.734 75.2337 66.5816 75.3029C66.4291 75.3721 66.2934 75.4728 66.1838 75.5983C65.9113 75.9263 65.7338 76.3211 65.67 76.7407C65.5521 77.1033 65.5759 77.4963 65.7368 77.8424C65.8087 77.9617 65.9124 78.0594 66.0364 78.1247C66.1605 78.19 66.3003 78.2206 66.4407 78.213C66.5912 78.217 66.741 78.1912 66.8813 78.1371C67.0216 78.0831 67.1496 78.0019 67.2577 77.8983C67.3986 77.7489 67.5132 77.5773 67.5968 77.3905H68.5165C68.346 77.851 68.0466 78.2542 67.6533 78.5532C67.2624 78.852 66.7807 79.0112 66.2865 79.0051C66.0234 79.0286 65.7586 78.985 65.5174 78.8783C65.2763 78.7716 65.067 78.6055 64.9095 78.3958C64.7653 78.1445 64.6744 77.8667 64.6426 77.5795C64.6108 77.2923 64.6387 77.0016 64.7246 76.7254C64.8382 76.0417 65.1844 75.4167 65.7059 74.9535Z" fill="white"/>
<path d="M78.6743 75.2787H76.3262L76.1258 76.2079H78.2838L78.1142 76.9694H75.9614L75.7199 78.0965H78.1759L78.0063 78.8886H74.646L75.5863 74.502H78.8438L78.6743 75.2787Z" fill="white"/>
<path d="M85.3946 74.4966H86.3657L87.4704 77.5428L88.1332 74.4966H88.9964L88.051 78.8832H87.1262L85.9804 75.7862L85.3124 78.9035H84.4492L85.3946 74.4966Z" fill="white"/>
<path d="M98.8209 74.4966L98.6513 75.2734H97.3411L96.5704 78.8832H95.6352L96.4111 75.2734H95.0752L95.2448 74.4966H98.8209Z" fill="white"/>
<path d="M108.208 75.2787H105.86L105.659 76.2079H107.817L107.653 76.9694H105.495L105.254 78.0965H107.71L107.54 78.8886H104.18L105.12 74.502H108.378L108.208 75.2787Z" fill="white"/>
<path d="M118.191 74.9181C118.265 75.0291 118.315 75.1533 118.34 75.2836C118.374 75.4359 118.374 75.5934 118.34 75.7457C118.287 75.9683 118.187 76.1775 118.048 76.36C117.892 76.5646 117.674 76.7141 117.426 76.7865C117.507 76.8159 117.581 76.8618 117.643 76.9213C117.705 76.9808 117.753 77.0525 117.786 77.1317C117.847 77.3562 117.847 77.5926 117.786 77.8171L117.724 78.1116C117.692 78.2468 117.672 78.3843 117.662 78.5228C117.658 78.5703 117.667 78.618 117.687 78.6615C117.706 78.7049 117.737 78.7428 117.775 78.7716V78.8833H116.748C116.748 78.7868 116.748 78.7056 116.748 78.6447C116.749 78.5184 116.763 78.3926 116.789 78.269L116.871 77.8628C116.928 77.5836 116.917 77.3957 116.835 77.3043C116.753 77.2129 116.578 77.1622 116.321 77.1622H115.366L115.001 78.8833H114.091L115.037 74.4967H117.21C117.446 74.4909 117.682 74.5287 117.904 74.6084C118.026 74.6849 118.125 74.7917 118.191 74.9181ZM115.705 75.2582L115.453 76.4361H116.481C116.645 76.4426 116.808 76.4185 116.963 76.3651C117.067 76.3217 117.158 76.2519 117.226 76.1627C117.293 76.0735 117.336 75.9681 117.349 75.8573C117.405 75.5883 117.349 75.4105 117.195 75.3192C117.058 75.2583 116.908 75.2322 116.758 75.243L115.705 75.2582Z" fill="white"/>
</g>
<defs>
<clipPath id="clip0_87_101">
<rect width="120" height="79" fill="white"/>
</clipPath>
</defs>
</svg>
