<svg width="41" height="42" viewBox="0 0 41 42" fill="none" xmlns="http://www.w3.org/2000/svg">
<path d="M35.8747 22.3496C35.606 25.2575 34.5146 28.0288 32.7284 30.3391C30.9421 32.6494 28.5348 34.4032 25.7882 35.3953C23.0416 36.3874 20.0692 36.5768 17.2189 35.9412C14.3685 35.3057 11.7582 33.8715 9.69318 31.8065C7.6282 29.7416 6.19402 27.1312 5.55847 24.2809C4.92291 21.4305 5.11227 18.4581 6.10437 15.7115C7.09647 12.9649 8.8503 10.5576 11.1606 8.77133C13.4709 6.98507 16.2422 5.89373 19.1501 5.625C17.4476 7.92829 16.6284 10.7661 16.8414 13.6224C17.0544 16.4787 18.2855 19.1636 20.3108 21.1889C22.3361 23.2142 25.021 24.4453 27.8773 24.6583C30.7336 24.8713 33.5714 24.0521 35.8747 22.3496V22.3496Z" stroke="#000" stroke-width="2" stroke-linecap="round" stroke-linejoin="round"/>
</svg>
