<svg width="50" height="100" viewBox="0 0 50 100" fill="none" xmlns="http://www.w3.org/2000/svg">
<path d="M0 0C6.56609 -2.87013e-07 13.0679 1.29329 19.1342 3.80602C25.2005 6.31876 30.7124 10.0017 35.3553 14.6447C39.9983 19.2876 43.6812 24.7995 46.194 30.8658C48.7067 36.9321 50 43.4339 50 50C50 56.5661 48.7067 63.0679 46.194 69.1342C43.6812 75.2004 39.9983 80.7124 35.3553 85.3553C30.7124 89.9983 25.2005 93.6812 19.1342 96.194C13.0679 98.7067 6.56609 100 0 100V0Z" fill="#151416"/>
<path d="M14 59.18L23.16 50L14 40.82L16.82 38L28.82 50L16.82 62L14 59.18Z" fill="#EAEBEB"/>
</svg>
