<svg width="33" height="32" viewBox="0 0 33 32" fill="none" xmlns="http://www.w3.org/2000/svg">
<g clip-path="url(#clip0_113_989)">
<path d="M10.7446 29C22.8171 29 29.4221 18.9956 29.4221 10.3225C29.4221 10.0412 29.4159 9.75373 29.4034 9.47248C30.6882 8.54328 31.7971 7.39234 32.6777 6.07373C31.4811 6.60613 30.2106 6.95384 28.9096 7.10498C30.2794 6.28388 31.3051 4.99396 31.7965 3.47436C30.5078 4.23808 29.0985 4.77682 27.629 5.06748C26.6389 4.01541 25.3297 3.31882 23.904 3.0854C22.4782 2.85198 21.0153 3.09473 19.7414 3.77613C18.4675 4.45752 17.4535 5.53961 16.8562 6.85508C16.2589 8.17056 16.1116 9.64615 16.4371 11.0537C13.8277 10.9228 11.275 10.2449 8.94438 9.06413C6.61377 7.88332 4.55733 6.22592 2.90836 4.19936C2.07027 5.64432 1.81381 7.35419 2.19111 8.98145C2.56841 10.6087 3.55115 12.0313 4.93961 12.96C3.89724 12.9269 2.8777 12.6462 1.96523 12.1412V12.2225C1.9643 13.7389 2.48853 15.2088 3.44881 16.3824C4.4091 17.5559 5.74617 18.3607 7.23273 18.66C6.26714 18.9242 5.25371 18.9627 4.27086 18.7725C4.69034 20.0766 5.5065 21.2172 6.60543 22.0351C7.70436 22.853 9.03123 23.3075 10.4009 23.335C8.07563 25.1615 5.2033 26.1522 2.24648 26.1475C1.72212 26.1467 1.19827 26.1145 0.677734 26.0512C3.68154 27.9783 7.17578 29.0018 10.7446 29Z" fill="white"/>
</g>
<defs>
<clipPath id="clip0_113_989">
<rect width="32" height="32" fill="white" transform="translate(0.677734)"/>
</clipPath>
</defs>
</svg>
